<svg xmlns="http://www.w3.org/2000/svg" xmlns:xlink="http://www.w3.org/1999/xlink" width="96" height="96" style=""><rect id="backgroundrect" width="100%" height="100%" x="0" y="0" fill="none" stroke="none"/>
  <defs>
    <clipPath id="clip-tag">
      <rect width="96" height="96" id="svg_1"/>
    </clipPath>
  </defs>
  
<g class="currentLayer" style=""><title>Layer 1</title><g id="tag" clip-path="url(#clip-tag)" class="selected" stroke="#ffffff" stroke-opacity="1">
    <g id="pills" stroke="#ffffff" stroke-opacity="1">
      <line id="Line_6" data-name="Line 6" y1="23" x2="91" fill="none" stroke="#ffffff" stroke-linecap="round" stroke-linejoin="round" stroke-width="4" y2="-1" x1="67"/>
      <circle id="Ellipse_333" data-name="Ellipse 333" cx="63" cy="27" r="6" fill="none" stroke="#ffffff" stroke-linecap="round" stroke-linejoin="round" stroke-width="4" stroke-opacity="1"/>
      <path id="Path_181" data-name="Path 181" d="M5.438,65.392 l19.118,19.164 a8.309,8.309 0 0 0 11.772,0 l40.234,-40.33 a8.354,8.354 0 0 0 2.438,-5.9 V19.343999999999994 A8.334,8.334 0 0 0 70.676,11 H51.521 a8.315,8.315 0 0 0 -5.875,2.433 l-40.2,40.149 A8.357,8.357 0 0 0 5.438,65.392 z" fill="none" stroke="#ffffff" stroke-linecap="round" stroke-linejoin="round" stroke-width="4" stroke-opacity="1"/>
    </g>
  </g></g></svg>